<?xml version="1.0" encoding="UTF-8"?>
<svg version="1.1" xmlns="http://www.w3.org/2000/svg" width="1024" height="1024">
<path d="M0 0 C337.92 0 675.84 0 1024 0 C1024 337.92 1024 675.84 1024 1024 C686.08 1024 348.16 1024 0 1024 C0 686.08 0 348.16 0 0 Z " fill="#FBFBFB" transform="translate(0,0)"/>
<path d="M0 0 C1.38517822 0.32145996 1.38517822 0.32145996 2.79833984 0.64941406 C44.10062204 10.41190086 81.02639397 31.02639397 111 61 C111.9075 61.70125 112.815 62.4025 113.75 63.125 C118.02456015 66.64012053 121.27648986 71.04742349 124.69335938 75.36962891 C126.05858162 77.07309567 127.45525049 78.74645909 128.859375 80.41796875 C136.60101992 89.7145216 143.04791136 99.4749393 149 110 C149.46293457 110.81742676 149.92586914 111.63485352 150.40283203 112.47705078 C163.01721645 135.02607992 171.71545167 158.68526496 176.6875 184 C176.89020508 185.03165283 177.09291016 186.06330566 177.30175781 187.1262207 C180.2268082 202.74642927 181.35154969 217.94841162 181.25 233.8125 C181.24656586 234.69384613 181.24313171 235.57519226 181.23959351 236.48324585 C181.18206348 249.08175156 181.01991798 261.53858522 179 274 C178.83870605 275.02270996 178.67741211 276.04541992 178.51123047 277.09912109 C176.08656634 292.10430347 172.88228408 306.60607168 168 321 C167.71286133 321.86898926 167.42572266 322.73797852 167.12988281 323.63330078 C156.91825172 354.31787226 140.9610331 381.99530802 119.03515625 405.77734375 C117.19352366 407.78864691 115.4391381 409.84819672 113.6875 411.9375 C80.13820341 450.15918722 24.27499566 475.72665997 -26 479 C-47.57747577 480.03675559 -69.75302145 480.25274433 -91 476 C-91.86173828 475.83371094 -92.72347656 475.66742187 -93.61132812 475.49609375 C-131.84693124 467.89961631 -165.84065371 449.4809005 -195 424 C-195.84691406 423.27683594 -196.69382812 422.55367187 -197.56640625 421.80859375 C-201.77275567 418.17163173 -205.56340434 414.41325663 -209.14453125 410.16015625 C-210.45635567 408.63291645 -211.81301799 407.14365956 -213.19921875 405.68359375 C-257.94047053 358.49274042 -276.33307013 290.75309986 -275.08886719 227.10498047 C-274.56104828 208.6632197 -272.17186965 190.9618737 -268 173 C-267.70802734 171.71488525 -267.70802734 171.71488525 -267.41015625 170.40380859 C-260.03040119 138.42274939 -245.38333217 107.71552111 -225 82 C-224.03513672 80.74703125 -224.03513672 80.74703125 -223.05078125 79.46875 C-205.12544792 56.48941802 -183.19840006 38.50656668 -158 24 C-157.39043457 23.64099609 -156.78086914 23.28199219 -156.15283203 22.91210938 C-137.58934384 12.03096135 -116.90319011 4.80218689 -96 0 C-95.16500977 -0.20882813 -94.33001953 -0.41765625 -93.46972656 -0.6328125 C-64.44314603 -7.7294465 -28.9603107 -7.02230084 0 0 Z " fill="#04244F" transform="translate(367,261)"/>
<path d="M0 0 C1.80868813 0.00333092 1.80868813 0.00333092 3.65391541 0.00672913 C4.31730423 0.0065831 4.98069305 0.00643707 5.66418457 0.00628662 C7.86644207 0.00698571 10.06861596 0.01477787 12.27085876 0.02259827 C13.79400588 0.02446246 15.31715359 0.02588636 16.84030151 0.02688599 C20.85657903 0.03071105 24.87282059 0.04054124 28.88908386 0.05158997 C32.98443617 0.06180433 37.07979427 0.06638366 41.17515564 0.07142639 C49.21618779 0.08216352 57.25719069 0.0992398 65.29820251 0.12025452 C72.81432993 17.75474671 80.27722987 35.40892341 87.61070251 53.12025452 C87.96477173 53.97534607 88.31884094 54.83043762 88.68363953 55.71144104 C90.86083498 60.97069155 93.03621146 66.23069315 95.21104431 71.49092102 C98.42509859 79.26423364 101.64162172 87.03652215 104.86070251 94.80775452 C105.21233459 95.65682373 105.56396667 96.50589294 105.92625427 97.38069153 C111.02505028 109.68850323 116.17696624 121.97300782 121.36070251 134.24525452 C128.79793658 151.85590207 136.06665109 169.53320818 143.29820251 187.22914124 C146.29040439 194.54947984 149.29420971 201.86505782 152.29710388 209.18101501 C153.63542191 212.44191069 154.97312173 215.70305982 156.31083679 218.96420288 C159.25831101 226.14962415 162.20720148 233.33446179 165.15757751 240.51869202 C194.16812415 311.16681286 194.16812415 311.16681286 205.00108337 338.36048889 C208.83545239 347.98241965 212.71599107 357.58511265 216.61070251 367.18275452 C216.92584808 367.95937439 217.24099365 368.73599426 217.56568909 369.53614807 C219.16832906 373.48508896 220.77148783 377.43381899 222.37486267 381.38246155 C224.27141024 386.05355464 226.16598991 390.72544388 228.05992126 395.39759827 C228.36909988 396.16026505 228.6782785 396.92293182 228.99682617 397.70870972 C230.54705347 401.53295756 232.09685787 405.35737622 233.64610291 409.18202209 C236.56333728 416.38257636 239.48441718 423.58150194 242.4183197 430.77528381 C243.79792708 434.15865242 245.1754617 437.54286319 246.55284119 440.92713928 C247.2075689 442.53416901 247.86330258 444.14078933 248.52012634 445.7469635 C249.43311044 447.9797255 250.34255794 450.21389946 251.25132751 452.44837952 C251.51629028 453.09369629 251.78125305 453.73901306 252.054245 454.40388489 C254.02701957 459.26911713 255.62815558 464.1101137 257.29820251 469.12025452 C224.95820251 469.12025452 192.61820251 469.12025452 159.29820251 469.12025452 C141.0005513 419.94531687 141.0005513 419.94531687 132.86070251 397.55775452 C131.62402901 394.15780937 130.38689209 390.75803638 129.14828491 387.35879517 C128.39702488 385.29698781 127.64684608 383.23478603 126.89794922 381.17211914 C126.56927353 380.26998184 126.24059784 379.36784454 125.90196228 378.43836975 C125.61490921 377.64873337 125.32785614 376.85909698 125.03210449 376.04553223 C124.31903199 374.07916776 124.31903199 374.07916776 123.29820251 372.12025452 C63.89820251 372.12025452 4.49820251 372.12025452 -56.70179749 372.12025452 C-62.64179749 388.29025452 -68.58179749 404.46025452 -74.70179749 421.12025452 C-78.06488569 430.14615584 -81.43172963 439.16907852 -84.82679749 448.18275452 C-87.42554749 455.09212952 -90.02429749 462.00150452 -92.70179749 469.12025452 C-124.05179749 469.12025452 -155.40179749 469.12025452 -187.70179749 469.12025452 C-184.33068914 459.00692949 -184.33068914 459.00692949 -182.45179749 454.36634827 C-182.01835022 453.29014221 -181.58490295 452.21393616 -181.13832092 451.1051178 C-180.66426819 449.93448792 -180.19021545 448.76385803 -179.70179749 447.55775452 C-178.6218677 444.8774896 -177.54448879 442.19620248 -176.46742249 439.51478577 C-176.02888947 438.42372528 -176.02888947 438.42372528 -175.58149719 437.31062317 C-171.91031185 428.16612272 -168.29420786 418.99981123 -164.67292786 409.83546448 C-158.34131771 393.8126014 -151.98692262 377.7993742 -145.57679749 361.80775452 C-139.6727091 347.07855135 -133.82147406 332.32910197 -127.9957428 317.56874084 C-123.21979121 305.4694466 -118.41719317 293.38140753 -113.57679749 281.30775452 C-86.98082448 214.94484587 -61.10322199 148.28966337 -35.06178284 81.7077179 C-32.35309286 74.783071 -29.64114178 67.85970552 -26.92835999 60.93666077 C-25.74117466 57.90626467 -24.55409447 54.87582743 -23.36711121 51.84535217 C-22.5962764 49.8773767 -21.82534293 47.90943988 -21.05430603 45.94154358 C-17.47358969 36.8008224 -13.89569873 27.65938492 -10.38539124 18.49134827 C-10.14265472 17.85760284 -9.89991821 17.22385742 -9.64982605 16.57090759 C-8.57127491 13.75221329 -7.49701721 10.93197395 -6.42835999 8.10951233 C-6.0738678 7.17848694 -5.71937561 6.24746155 -5.35414124 5.28822327 C-5.05499817 4.49698059 -4.7558551 3.70573792 -4.44764709 2.89051819 C-3.27655837 0.1109554 -3.16903313 0.14105074 0 0 Z " fill="#03244E" transform="translate(675.7017974853516,263.87974548339844)"/>
<path d="M0 0 C8.16897309 7.21032952 15.1260272 15.06560813 21.3984375 23.96484375 C22.03193115 24.85864746 22.03193115 24.85864746 22.67822266 25.77050781 C35.76086363 44.57774658 43.14062819 65.58145743 47.3984375 87.96484375 C47.68883911 89.42978271 47.68883911 89.42978271 47.98510742 90.92431641 C49.56778373 99.80781599 49.73762615 108.56959717 49.71411133 117.56445312 C49.71096802 120.06555537 49.73444136 122.56545052 49.75976562 125.06640625 C49.81748845 139.7372798 48.08080099 154.22194852 44.2109375 168.40234375 C43.90119995 169.55029419 43.90119995 169.55029419 43.58520508 170.72143555 C36.35599696 196.35510014 23.15688988 219.09680591 4.3984375 237.96484375 C3.69895996 238.67036377 3.69895996 238.67036377 2.98535156 239.39013672 C-19.70263106 261.9457598 -50.73860109 275.2483456 -82.6015625 276.96484375 C-83.9009375 277.03574219 -85.2003125 277.10664062 -86.5390625 277.1796875 C-121.61644234 278.06369405 -154.93913067 264.92781075 -180.40820312 240.99853516 C-181.8111295 239.65933525 -183.20648911 238.31222233 -184.6015625 236.96484375 C-185.40335938 236.21460938 -186.20515625 235.464375 -187.03125 234.69140625 C-197.56690784 224.59321517 -204.90645023 212.7942704 -211.6015625 199.96484375 C-211.92398926 199.3527002 -212.24641602 198.74055664 -212.57861328 198.10986328 C-232.77908879 159.19937122 -235.50550856 108.62445076 -222.73071289 67.00463867 C-210.38061926 29.66215593 -183.81268454 -3.42690616 -148.6015625 -21.34765625 C-100.16773789 -45.21916093 -40.447552 -34.60221425 0 0 Z " fill="#FBFBFB" transform="translate(409.6015625,377.03515625)"/>
<path d="M0 0 C0.66 0 1.32 0 2 0 C14.93067305 34.29376489 27.58274948 68.68715822 40.15625 103.11328125 C40.58359436 104.28327667 41.01093872 105.45327209 41.45123291 106.65872192 C43.5128002 112.3035595 45.57333616 117.94876961 47.63183594 123.59472656 C48.38473667 125.65821369 49.13766551 127.72169056 49.890625 129.78515625 C50.24654724 130.76201385 50.60246948 131.73887146 50.96917725 132.74533081 C52.5785548 137.1530391 54.20225263 141.55366232 55.87695312 145.93701172 C56.1613324 146.68301132 56.44571167 147.42901093 56.7387085 148.19761658 C57.2587367 149.55596001 57.78301765 150.91268692 58.31256104 152.26734924 C59.36836509 155.02263151 60 157.01554978 60 160 C21.06 160 -17.88 160 -58 160 C-54.62822402 147.63682142 -54.62822402 147.63682142 -52.42578125 141.81640625 C-52.06481102 140.85451134 -52.06481102 140.85451134 -51.69654846 139.8731842 C-51.17742373 138.49087314 -50.65618927 137.1093528 -50.13299561 135.72857666 C-48.68075216 131.89471015 -47.24538258 128.05452305 -45.80859375 124.21484375 C-45.50270325 123.39838379 -45.19681274 122.58192383 -44.88165283 121.74072266 C-41.49017708 112.67049171 -38.19637634 103.56514634 -34.90093994 94.45968628 C-29.58062126 79.75957202 -24.18649645 65.09610537 -18.59594727 50.49658203 C-15.76758202 43.09032495 -13.08185817 35.64858608 -10.50537109 28.15136719 C-7.2352391 18.6813197 -3.6159732 9.34232637 0 0 Z " fill="#FAFAFB" transform="translate(707,393)"/>
<path d="M0 0 C0.33 0.99 0.66 1.98 1 3 C0.34 4.32 -0.32 5.64 -1 7 C29.36 7 59.72 7 91 7 C91 7.99 91 8.98 91 10 C59.65 10 28.3 10 -4 10 C-1 1 -1 1 0 0 Z " fill="#0D1F44" transform="translate(492,723)"/>
<path d="M0 0 C0.33 0.66 0.66 1.32 1 2 C0.30197519 3.92787804 -0.40378281 5.85362576 -1.1640625 7.7578125 C-2.41429453 11.1112386 -3.19122572 14.51604925 -4 18 C-4.66 18 -5.32 18 -6 18 C-6.103125 18.680625 -6.20625 19.36125 -6.3125 20.0625 C-7.14725019 23.62915989 -8.49472754 26.66222194 -10 30 C-11.29180738 26.12457786 -10.41918019 24.81921727 -8.9453125 21.0546875 C-8.49542969 19.89582031 -8.04554688 18.73695313 -7.58203125 17.54296875 C-7.10121094 16.33253906 -6.62039063 15.12210937 -6.125 13.875 C-5.65191406 12.65683594 -5.17882812 11.43867188 -4.69140625 10.18359375 C-1.16071429 1.16071429 -1.16071429 1.16071429 0 0 Z " fill="#091538" transform="translate(634,364)"/>
<path d="M0 0 C0.99 0 1.98 0 3 0 C2.67 2.31 2.34 4.62 2 7 C1.34 7 0.68 7 0 7 C0 7.66 0 8.32 0 9 C-0.66 9 -1.32 9 -2 9 C-2.33 9.66 -2.66 10.32 -3 11 C-2.44894091 7.0507432 -1.61064629 3.65079826 0 0 Z " fill="#081B41" transform="translate(660,296)"/>
<path d="M0 0 C0.99 0.99 1.98 1.98 3 3 C2.01 3.33 1.02 3.66 0 4 C-0.66 7.3 -1.32 10.6 -2 14 C-2.66 13.67 -3.32 13.34 -4 13 C-3.52140759 11.39566191 -3.04210442 9.79153584 -2.5625 8.1875 C-2.29566406 7.29417969 -2.02882813 6.40085937 -1.75390625 5.48046875 C-1.19612127 3.64526945 -0.60655425 1.81966274 0 0 Z " fill="#132245" transform="translate(108,404)"/>
<path d="M0 0 C0.66 0 1.32 0 2 0 C3.125 3.3125 3.125 3.3125 4 7 C3.01 8.485 3.01 8.485 2 10 C2 8.35 2 6.7 2 5 C0.02 5.99 0.02 5.99 -2 7 C-1.34 4.69 -0.68 2.38 0 0 Z " fill="#EFF2F4" transform="translate(707,393)"/>
<path d="M0 0 C7.48291572 6.15034169 7.48291572 6.15034169 10 10 C7 10 7 10 5.17578125 8.3203125 C4.56089844 7.59585938 3.94601563 6.87140625 3.3125 6.125 C2.68988281 5.40570312 2.06726563 4.68640625 1.42578125 3.9453125 C0 2 0 2 0 0 Z " fill="#182345" transform="translate(217,606)"/>
<path d="M0 0 C0.66 0 1.32 0 2 0 C1.67 1.65 1.34 3.3 1 5 C0.34 5 -0.32 5 -1 5 C-1.33 6.65 -1.66 8.3 -2 10 C-2.6875 8.375 -2.6875 8.375 -3 6 C-1.5625 2.75 -1.5625 2.75 0 0 Z " fill="#08183E" transform="translate(576,512)"/>
<path d="M0 0 C3.86648272 1.04097612 7.49461443 2.03698408 11 4 C10.67 4.66 10.34 5.32 10 6 C6.7 4.35 3.4 2.7 0 1 C0 0.67 0 0.34 0 0 Z " fill="#111D3F" transform="translate(223,718)"/>
<path d="M0 0 C0.66 0.33 1.32 0.66 2 1 C1.67 2.98 1.34 4.96 1 7 C0.01 7 -0.98 7 -2 7 C-1.34 4.69 -0.68 2.38 0 0 Z " fill="#0F2047" transform="translate(600,449)"/>
</svg>
